<svg width="56" height="56" viewBox="0 0 56 56" fill="none" xmlns="http://www.w3.org/2000/svg">
<circle cx="28" cy="28" r="28" fill="white"/>
<path d="M28 45.5C25.5792 45.5 23.3042 45.0404 21.175 44.1211C19.0458 43.2017 17.1937 41.9551 15.6188 40.3813C14.0438 38.8075 12.7972 36.9554 11.879 34.825C10.9608 32.6947 10.5012 30.4197 10.5 28C10.5 25.8125 10.9229 23.6688 11.7687 21.5688C12.6146 19.4688 13.7958 17.5945 15.3125 15.946C16.8292 14.2975 18.6521 12.9705 20.7812 11.9648C22.9104 10.9591 25.2437 10.4563 27.7812 10.4563C28.3937 10.4563 29.0208 10.4855 29.6625 10.5438C30.3042 10.6021 30.9604 10.7042 31.6312 10.85C31.3687 12.1625 31.4562 13.4021 31.8937 14.5688C32.3312 15.7355 32.9875 16.705 33.8625 17.4773C34.7375 18.2496 35.7805 18.7822 36.9915 19.075C38.2025 19.3679 39.4491 19.295 40.7312 18.8563C39.9729 20.5771 40.0826 22.2251 41.0602 23.8001C42.0379 25.3751 43.4887 26.1917 45.4125 26.25C45.4417 26.5709 45.4638 26.8695 45.479 27.146C45.4942 27.4226 45.5012 27.7218 45.5 28.0438C45.5 30.4355 45.0403 32.6883 44.121 34.8023C43.2017 36.9163 41.9551 38.7684 40.3812 40.3586C38.8074 41.9487 36.9553 43.2029 34.825 44.1211C32.6947 45.0392 30.4197 45.4989 28 45.5ZM25.375 24.5C26.1042 24.5 26.7242 24.2451 27.2352 23.7353C27.7462 23.2255 28.0012 22.6054 28 21.875C27.9988 21.1447 27.7439 20.5252 27.2352 20.0166C26.7266 19.5079 26.1065 19.2524 25.375 19.25C24.6435 19.2477 24.024 19.5032 23.5165 20.0166C23.009 20.5299 22.7535 21.1494 22.75 21.875C22.7465 22.6007 23.002 23.2208 23.5165 23.7353C24.031 24.2498 24.6505 24.5047 25.375 24.5ZM21.875 33.25C22.6042 33.25 23.2242 32.9951 23.7352 32.4853C24.2462 31.9755 24.5012 31.3554 24.5 30.625C24.4988 29.8947 24.2439 29.2752 23.7352 28.7665C23.2266 28.2579 22.6065 28.0024 21.875 28C21.1435 27.9977 20.524 28.2532 20.0165 28.7665C19.509 29.2799 19.2535 29.8994 19.25 30.625C19.2465 31.3507 19.502 31.9708 20.0165 32.4853C20.531 32.9998 21.1505 33.2547 21.875 33.25ZM33.25 35C33.7458 35 34.1617 34.8321 34.4977 34.496C34.8337 34.16 35.0012 33.7447 35 33.25C34.9988 32.7554 34.8308 32.34 34.496 32.004C34.1612 31.668 33.7458 31.5 33.25 31.5C32.7542 31.5 32.3388 31.668 32.004 32.004C31.6692 32.34 31.5012 32.7554 31.5 33.25C31.4988 33.7447 31.6668 34.1606 32.004 34.4978C32.3412 34.835 32.7565 35.0024 33.25 35ZM28 42C31.5583 42 34.7159 40.775 37.4727 38.325C40.2296 35.875 41.7387 32.7542 42 28.9625C40.5417 28.3209 39.3966 27.4459 38.5647 26.3375C37.7329 25.2292 37.1717 23.9896 36.8813 22.6188C34.6354 22.298 32.7104 21.3355 31.1062 19.7313C29.5021 18.1271 28.5104 16.2021 28.1312 13.9563C25.7979 13.898 23.7492 14.3209 21.9852 15.225C20.2212 16.1292 18.7477 17.2889 17.5647 18.7041C16.3818 20.1192 15.4922 21.6575 14.896 23.3188C14.2998 24.9801 14.0012 26.5405 14 28C14 31.8792 15.3638 35.1826 18.0915 37.9103C20.8192 40.638 24.122 42.0012 28 42Z" fill="#464646"/>
</svg>
