<?xml version="1.0" encoding="UTF-8"?>
<svg id="Calque_2" data-name="Calque 2" xmlns="http://www.w3.org/2000/svg" viewBox="0 0 994.58 193.86">
  <defs>
    <style>
      .cls-1 {
        fill: #fff;
      }

      .cls-2 {
        fill: #4f7a16;
      }
    </style>
  </defs>
  <g id="formes">
    <g>
      <g>
        <path class="cls-1" d="M282,81.97l-14.87.03v-2.65c-.01-5.13-.59-9.95-1.76-14.44s-3.03-8.43-5.6-11.81-5.83-6.07-9.8-8.05c-3.72-1.86-8.1-2.85-13.15-2.97l.04-2.44c5.68.07,11.13.83,16.35,2.26,5.54,1.52,10.44,3.97,14.7,7.35s7.67,7.76,10.24,13.12c2.56,5.37,3.85,11.9,3.85,19.6Z"/>
        <path class="cls-1" d="M279.72,103.32c-.35,3.39-1.46,6.74-3.32,10.07-1.87,3.32-4.38,6.3-7.53,8.92-3.15,2.63-6.97,4.76-11.46,6.39s-9.6,2.45-15.31,2.45c-7.35,0-14.21-1.11-20.57-3.33-6.36-2.21-11.87-5.39-16.53-9.53-4.67-4.14-8.34-9.13-11.03-14.97-2.68-5.83-4.02-12.42-4.02-19.77s1.25-13.59,3.76-19.08c2.51-5.48,5.86-10.06,10.06-13.73,4.2-3.68,9.07-6.45,14.61-8.32,5.54-1.86,11.35-2.8,17.42-2.8.36,0,.71,0,1.06.02l-.04,2.44c-.34-.01-.68-.01-1.02-.01-4.09,0-7.94.73-11.55,2.19-3.62,1.46-6.77,3.74-9.45,6.83-2.69,3.09-4.88,6.97-6.56,11.63-1.7,4.67-2.66,10.21-2.89,16.63h61.77v2.65s-61.95.15-61.95.15c0,7.35,1.23,13.74,3.68,19.16,2.45,5.43,5.6,9.95,9.45,13.56,3.85,3.62,8.22,6.33,13.12,8.14,4.9,1.81,9.86,2.71,14.88,2.71,3.61,0,7.14-.46,10.58-1.4,3.44-.93,6.65-2.33,9.63-4.2,2.98-1.86,5.6-4.2,7.87-7,2.28-2.8,4.06-6.06,5.34-9.8Z"/>
        <path class="cls-1" d="M184.7,130.97h-22.4c.7-.58,1.34-1.51,1.92-2.8.47-1.16.88-2.74,1.23-4.72s.52-4.49.52-7.53v-50.75c0-3.5-.55-6.59-1.66-9.27s-2.57-4.93-4.37-6.74c-1.82-1.81-3.88-3.15-6.22-4.02-2.33-.88-4.78-1.32-7.35-1.32s-5.16.44-7.79,1.32c-2.62.87-5.04,2.21-7.26,4.02-2.21,1.81-4.2,4.03-5.95,6.65-1.75,2.63-3.03,5.69-3.85,9.19.7-4.55,1.98-8.43,3.85-11.64s4.14-5.83,6.83-7.87c2.68-2.04,5.66-3.56,8.92-4.55,3.27-.99,6.59-1.49,9.98-1.49,3.73,0,7.4.55,11.02,1.66s6.83,2.71,9.63,4.81,5.07,4.61,6.82,7.53,2.63,6.18,2.63,9.8v52.85c0,3.03.17,5.51.52,7.44.35,1.92.76,3.47,1.23,4.63.46,1.29,1.05,2.22,1.75,2.8Z"/>
        <path class="cls-1" d="M121,.25v116.55c0,3.27-.35,5.83-1.05,7.7s-1.81,3.27-3.33,4.2c-1.51.93-3.47,1.55-5.86,1.84s-5.28.43-8.66.43c.7-.58,1.28-1.51,1.75-2.8.46-1.16.87-2.74,1.22-4.72s.53-4.61.53-7.88V23c0-3.73-.18-6.74-.53-9.01-.35-2.28-.76-4.06-1.22-5.34-.47-1.4-1.05-2.45-1.75-3.15L121,.25Z"/>
        <path class="cls-1" d="M93,8.47l3.32,14.88c-1.16-1.98-3.32-3.73-6.47-5.25-2.69-1.28-6.6-2.51-11.73-3.68-5.13-1.16-12.07-1.8-20.82-1.92-.35.93-.64,2.19-.88,3.76-.23,1.58-.35,4.11-.35,7.61v92.23c0,1.98.18,3.88.53,5.69s.76,3.41,1.22,4.81c.47,1.52,1.05,2.97,1.75,4.37h-22.4c.7-1.28,1.28-2.74,1.75-4.37.47-1.28.88-2.86,1.23-4.73.35-1.86.52-3.79.52-5.77V23.87c0-3.38-.11-5.89-.35-7.52-.23-1.63-.52-2.92-.87-3.85-8.75.12-15.72.76-20.92,1.92-5.19,1.17-9.12,2.4-11.81,3.68-3.27,1.52-5.42,3.27-6.47,5.25l3.5-14.88h89.25Z"/>
      </g>
      <g>
        <path class="cls-2" d="M967.58,39.97c10.52-12.51,31.18-10.98,25.9,9.52-3.04,11.79-16.04,21.89-25.94,28.01-3.51,2.17-9.05,4.41-12.03,6.63-2.11,1.56-3.75,4.64-5.6,6.53-14.78,15.08-26.73,19.1-46.84,21.7l-.04-.29c19.99-4.6,41.61-20.35,48.05-40.44,2.49-7.78,3.84-19.24,2.26-27.26-.58-2.94-3.99-4.22-6.69-4.3-17.41-.49-34.87,4.21-52.38,2.36-5.54-.59-10.96-2.13-16.45-2.97-.13-.84,1.23-.55,1.78-.52,1.19.07,2.3.5,3.49.55,15.47.58,43.67-1.92,56.91-10.2,6.8-4.25,6.74-10.41-.53-13.9-14.76-7.1-50.29-4.83-66.94-3.15-5.46.55-10.86,1.66-16.28,2.38-.55.08-1.74.56-1.62-.36,12.08-2.37,24.26-4.93,36.56-6.05,17.06-1.55,56.12-3.37,67.57,11.58,5.4,7.04,3.84,26.8,2.69,35.49-.93,7.09-2.73,14.08-4.46,20.99.44.42,6.44-2.42,7.39-2.93,8.34-4.51,21.9-16.4,23.23-26.19,1.49-10.85-6.36-12.02-14.88-9.34-1.84.58-3.3,1.79-5.15,2.16Z"/>
        <path class="cls-2" d="M890.72,83.38c10.55-14.54,32.42-17.27,49.12-16.94-11.5,12.21-14.94,30.18-28.5,40.58l-8.31,5.05.04.29c-.59.08-1.19.16-1.8.23-6.46.79-12.21,2.56-18.93.77l-.24-1.28c5.16-6.5,10.2-13.53,16.28-19.17.73-.68,2.06-1.8,2.88-2.5.76-.65,2.99-1.7,3.28-2.29.38-.77-.21-.93-1.01-.5-8.47,4.56-17.36,13.84-22.43,21.94.09-8.67,4.52-19.15,9.62-26.18Z"/>
        <path class="cls-1" d="M840.97,64.49c1.59,5.99,1.9,13.23.93,21.72-.96,8.38-2.87,15.54-5.71,21.51-2.85,5.97-6.4,10.85-10.65,14.66s-9.09,6.56-14.52,8.27c-5.43,1.7-11.16,2.54-17.19,2.51-1.5-.01-3.03-.13-4.59-.36l.37-2.62c1.34.18,2.73.27,4.19.28,9.33.05,16.71-3.32,22.16-10.11,5.44-6.79,9.07-18.07,10.88-33.86.89-7.77.8-14.41-.28-19.92-1.07-5.51-2.81-9.98-5.2-13.4-2.4-3.43-5.28-5.92-8.62-7.5-3.35-1.57-6.84-2.37-10.48-2.39-3.19-.02-6.38.5-9.57,1.56-3.2,1.06-6.16,2.57-8.89,4.53s-5.13,4.31-7.21,7.05c-2.08,2.75-3.59,5.73-4.53,8.95.46-3.94,1.81-7.55,4.06-10.83,2.26-3.28,5.08-6.08,8.48-8.39,3.39-2.32,7.18-4.12,11.37-5.42,4.19-1.29,8.45-1.92,12.77-1.9,4.66.02,9.2.92,13.61,2.68s8.22,4.53,11.42,8.31c3.21,3.79,5.61,8.68,7.2,14.67Z"/>
        <path class="cls-1" d="M789.61,130.18l-.37,2.62c-1.28-.18-2.58-.44-3.9-.77-2.93-.73-5.69-1.79-8.26-3.18s-4.88-3.14-6.91-5.25c-2.04-2.1-3.52-4.53-4.46-7.29l-4.72,41.26c-.31,2.62-.4,4.93-.28,6.9.11,1.98.32,3.62.63,4.94.27,1.56.69,2.88,1.25,3.96l-21.84-.12c.8-1.07,1.52-2.39,2.16-3.94.6-1.31,1.19-2.95,1.76-4.92.56-1.97,1-4.28,1.3-6.91l11.14-97.21c.3-2.63.39-4.91.27-6.82-.12-1.92-.34-3.53-.64-4.85-.28-1.56-.69-2.88-1.25-3.96l19.04-5.28-2.97,25.95-3.69,32.17c-.49,4.3-.28,8.43.63,12.38.91,3.96,2.48,7.47,4.69,10.53s5.03,5.5,8.46,7.32c2.36,1.24,5.01,2.07,7.96,2.47Z"/>
        <path class="cls-1" d="M739.01,67.29c1.72,5.81,2.16,12.37,1.33,19.66-.84,7.29-2.78,13.84-5.84,19.62-3.05,5.79-6.86,10.7-11.42,14.75-4.56,4.04-9.64,7.12-15.23,9.25-5.59,2.12-11.35,3.16-17.26,3.13-5.92-.03-11.42-1.16-16.51-3.41-5.1-2.24-9.46-5.4-13.09-9.49s-6.3-9.04-8.03-14.85c-1.72-5.81-2.17-12.31-1.35-19.48.82-7.18,2.76-13.66,5.81-19.45,3.06-5.78,6.87-10.7,11.43-14.74s9.63-7.13,15.23-9.25c5.49-2.08,11.14-3.13,16.95-3.14l.02,2.51c-5.12-.02-9.66,1.15-13.63,3.52s-7.38,5.55-10.23,9.55c-2.85,3.99-5.15,8.65-6.89,13.96-1.75,5.31-2.96,10.9-3.63,16.76s-.75,11.45-.22,16.78,1.75,10.03,3.68,14.11c1.92,4.08,4.59,7.36,8.01,9.82,3.41,2.48,7.68,3.73,12.8,3.75,5.12.03,9.66-1.17,13.64-3.6s7.4-5.67,10.25-9.73c2.86-4.05,5.19-8.73,6.99-14.05,1.8-5.31,3.04-10.9,3.72-16.76.67-5.86.71-11.45.13-16.78-.59-5.33-1.85-10-3.78-14.02s-4.6-7.23-8.02-9.65c-1.72-1.2-3.64-2.11-5.78-2.72l.46-2.83c3.24.53,6.35,1.43,9.31,2.7,5.1,2.19,9.47,5.29,13.11,9.32,3.63,4.03,6.31,8.95,8.04,14.76Z"/>
        <path class="cls-1" d="M708.55,40.51l-.46,2.83c-2.13-.61-4.48-.92-7.04-.94l-.02-2.51h.31c2.47.02,4.88.22,7.21.62Z"/>
        <path class="cls-1" d="M688.2,7.87l1.49,15.27c-.9-2.04-2.8-3.85-5.69-5.42-2.47-1.33-6.14-2.6-11-3.83-4.87-1.22-11.57-1.91-20.08-2.08-.45.96-.89,2.24-1.3,3.85s-.82,4.21-1.23,7.8l-10.84,94.53c-.23,2.03-.28,3.98-.16,5.83.13,1.86.34,3.5.63,4.94.28,1.56.68,3.06,1.2,4.5l-21.84-.12c.83-1.31,1.57-2.81,2.22-4.48.6-1.31,1.19-2.92,1.75-4.84.56-1.9.95-3.88,1.19-5.91l10.83-94.53c.4-3.47.58-6.04.54-7.71-.03-1.68-.17-2.99-.4-3.96-8.54.08-15.42.7-20.61,1.87-5.2,1.17-9.19,2.4-11.95,3.7-3.37,1.54-5.68,3.32-6.93,5.35l5.16-15.23,87.02.47Z"/>
        <path class="cls-1" d="M538.12,64.49c1.59,5.99,1.9,13.23.92,21.72-.95,8.38-2.86,15.54-5.7,21.51-2.85,5.97-6.4,10.85-10.65,14.66s-9.09,6.56-14.52,8.27c-5.43,1.7-11.16,2.54-17.19,2.51-1.5-.01-3.03-.13-4.6-.36l.37-2.62c1.34.18,2.74.27,4.2.28,9.32.05,16.71-3.32,22.16-10.11,5.44-6.79,9.07-18.07,10.88-33.86.89-7.77.8-14.41-.28-19.92s-2.81-9.98-5.21-13.4c-2.4-3.43-5.27-5.92-8.61-7.5-3.35-1.57-6.85-2.37-10.49-2.39-3.18-.02-6.37.5-9.57,1.56-3.19,1.06-6.16,2.57-8.88,4.53-2.73,1.96-5.13,4.31-7.21,7.05-2.08,2.75-3.59,5.73-4.53,8.95.45-3.94,1.81-7.55,4.06-10.83s5.08-6.08,8.47-8.39c3.4-2.32,7.19-4.12,11.38-5.42,4.19-1.29,8.44-1.92,12.77-1.9,4.66.02,9.2.92,13.61,2.68s8.21,4.53,11.42,8.31c3.21,3.79,5.61,8.68,7.2,14.67Z"/>
        <path class="cls-1" d="M486.75,130.18l-.37,2.62c-1.27-.18-2.57-.44-3.89-.77-2.94-.73-5.69-1.79-8.26-3.18s-4.88-3.14-6.91-5.25c-2.04-2.1-3.52-4.53-4.46-7.29l-4.73,41.26c-.3,2.62-.39,4.93-.28,6.9.12,1.98.33,3.62.63,4.94.28,1.56.7,2.88,1.26,3.96l-21.84-.12c.8-1.07,1.52-2.39,2.15-3.94.61-1.31,1.2-2.95,1.76-4.92.57-1.97,1.01-4.28,1.31-6.91l11.14-97.21c.3-2.63.39-4.91.27-6.82-.12-1.92-.34-3.53-.64-4.85-.28-1.56-.69-2.88-1.25-3.96l19.04-5.28-2.97,25.95-3.69,32.17c-.49,4.3-.28,8.43.63,12.38.91,3.96,2.47,7.47,4.68,10.53s5.03,5.5,8.47,7.32c2.36,1.24,5.01,2.07,7.95,2.47Z"/>
        <path class="cls-2" d="M449.93,9.69c.38-.25-.08,1.92-.09,2.08-.67,6.38-2.16,14.03-5.77,19.39-2.66,3.94-6.17,5.58-12.2,7.61-.97.32-9.02,1.64-10.02,1.64-.34-2.95,1.02-6.68,1.88-9.53,3.46-11.5,16.56-12.94,24.57-19.65.6-.5,1.06-1.18,1.63-1.54Z"/>
        <path class="cls-1" d="M347,8.43l100.27-.45c-.71.69-3.98,2.29-8.28,4.37-3.02,1.45-6.55,3.14-10.05,4.9,0,0-6.23-1.2-11.04-2.41-4.81-1.2-11.41-1.89-19.82-2.06-.45.95-.87,2.21-1.28,3.81-.41,1.59-.81,4.16-1.22,7.7l-10.7,93.32c-.23,2.01-.28,3.93-.15,5.76s.33,3.45.62,4.87c.27,1.54.67,3.02,1.18,4.44l-21.57-.12c.83-1.29,1.56-2.76,2.2-4.42.59-1.29,1.17-2.88,1.72-4.77.56-1.89.95-3.83,1.18-5.84l10.7-93.32c.39-3.43.57-5.96.53-7.62-.04-1.65-.17-2.95-.39-3.9-8.44.07-15.23.69-20.36,1.84-5.13,1.15-9.06,2.37-11.79,3.66-3.33,1.51-5.61,3.27-6.85,5.27l5.1-15.03Z"/>
        <path class="cls-1" d="M441.16,39.02l-9,78.56c-.3,2.63-.39,4.87-.26,6.73s.34,3.44.65,4.76c.27,1.56.7,2.81,1.27,3.77l-21.84-.11c.81-1.08,1.52-2.33,2.14-3.76.6-1.31,1.19-2.93,1.75-4.84s.99-4.18,1.29-6.81l6.79-59.19c.31-2.75.4-5,.25-6.73-.14-1.74-.38-3.15-.71-4.22-.32-1.2-.77-2.16-1.37-2.88,0,0,6.72-.79,10.38-1.68s8.66-3.6,8.66-3.6Z"/>
        <path class="cls-2" d="M261.78.46c3.69,5.92-2.02,9.93-6.27,12.33-6.22,3.51-14.23,4.02-16.68,10.88-.5,1.43-.21,3.44-.36,5-4.1-6.49-2.92-11.52,1.87-15.12,5.13-3.85,19.76-5.92,20.87-11.83.03-.15-.26-2.09.57-1.26Z"/>
        <path class="cls-2" d="M261.02,10.44c4.82,5.44-2.13,9.38-6.28,10.97-2.68,1.02-10.25,2.41-11.39,4.43l-1.6,2.83c-.4-.61-.48-1.54-.53-2.14-.81-10.34,20.61-8.59,20.05-15.29-.03-.28-.75-.45-.25-.8Z"/>
      </g>
      <path class="cls-1" d="M564.86,153.69c18.83,3.01,45.85,12.36,21.44,23.53-30.78,14.1-121.53,16.96-160.33,16.3-31.38-.53-110.95-4.9-133.55-17.97-19.17-11.1,11.46-19.92,27.19-22.42l-10.04,4.47c-12.89,8.52,6.1,14.98,17.98,18.05,52.39,13.52,174.45,13.71,226.78.17,19.43-5.03,34.27-12.6,10.53-22.13Z"/>
    </g>
  </g>
</svg>